<svg width="32" height="32" viewBox="0 0 32 32" fill="none" xmlns="http://www.w3.org/2000/svg">
<circle cx="16" cy="16" r="16" fill="#282D36"/>
<path fill-rule="evenodd" clip-rule="evenodd" d="M8.23274 15.8204C12.3933 14.0077 15.1677 12.8126 16.5559 12.2352C20.5194 10.5867 21.343 10.3003 21.8798 10.2908C21.9978 10.2888 22.2618 10.318 22.4328 10.4568C22.5772 10.5739 22.6169 10.7322 22.6359 10.8433C22.655 10.9543 22.6786 11.2074 22.6598 11.4051C22.445 13.6619 21.5157 19.1384 21.0428 21.666C20.8428 22.7355 20.4489 23.0941 20.0675 23.1292C19.2387 23.2055 18.6093 22.5815 17.8066 22.0553C16.5505 21.2319 15.8408 20.7193 14.6215 19.9158C13.2124 18.9872 14.1259 18.4769 14.9289 17.6428C15.1391 17.4245 18.7908 14.103 18.8615 13.8017C18.8704 13.764 18.8786 13.6235 18.7951 13.5493C18.7117 13.4752 18.5885 13.5005 18.4996 13.5207C18.3736 13.5493 16.3669 14.8756 12.4796 17.4997C11.91 17.8908 11.3941 18.0814 10.9318 18.0714C10.4222 18.0604 9.442 17.7833 8.71329 17.5464C7.8195 17.2559 7.10913 17.1023 7.17099 16.6089C7.20321 16.3519 7.55713 16.089 8.23274 15.8204Z" fill="#858892"/>
</svg>
