<svg width="52" height="52" viewBox="0 0 52 52" fill="none" xmlns="http://www.w3.org/2000/svg">
<path d="M26 47C37.598 47 47 37.598 47 26C47 14.402 37.598 5 26 5C14.402 5 5 14.402 5 26C5 37.598 14.402 47 26 47Z" fill="white"/>
<mask id="mask0_6_391" style="mask-type:luminance" maskUnits="userSpaceOnUse" x="18" y="21" width="16" height="10">
<path d="M34 21H18V31H34V21Z" fill="white"/>
</mask>
<g mask="url(#mask0_6_391)">
<mask id="mask1_6_391" style="mask-type:luminance" maskUnits="userSpaceOnUse" x="18" y="21" width="16" height="10">
<path d="M33.9332 21.1431H18.3301V30.8573H33.9332V21.1431Z" fill="white"/>
</mask>
<g mask="url(#mask1_6_391)">
<path d="M28.2361 22.1772H24.0137V29.779H28.2361V22.1772Z" fill="#FF5A00"/>
<path d="M24.2953 25.9784C24.2953 24.4339 25.0198 23.0631 26.1317 22.1775C25.3134 21.5328 24.2812 21.1431 23.1553 21.1431C20.4882 21.1431 18.3301 23.3057 18.3301 25.9784C18.3301 28.651 20.4882 30.8136 23.1553 30.8136C24.2812 30.8136 25.3134 30.424 26.1317 29.7793C25.0183 28.9061 24.2953 27.5228 24.2953 25.9784Z" fill="#EB001B"/>
<path d="M33.9324 25.9784C33.9324 28.651 31.7744 30.8136 29.1072 30.8136C27.9813 30.8136 26.9491 30.424 26.1309 29.7793C27.2567 28.892 27.9673 27.5228 27.9673 25.9784C27.9673 24.4339 27.2427 23.0631 26.1309 22.1775C26.9476 21.5328 27.9798 21.1431 29.1056 21.1431C31.7744 21.1431 33.9324 23.3198 33.9324 25.9784Z" fill="#F79E1B"/>
</g>
</g>
<mask id="mask2_6_391" style="mask-type:luminance" maskUnits="userSpaceOnUse" x="17" y="10" width="18" height="7">
<path d="M35 10H17V17H35V10Z" fill="white"/>
</mask>
<g mask="url(#mask2_6_391)">
<path d="M28.7083 10.2856C27.4364 10.2856 26.2998 11.0574 26.2998 12.4834C26.2998 14.1187 28.3156 14.2316 28.3156 15.0531C28.3156 15.399 27.977 15.7087 27.3987 15.7087C26.578 15.7087 25.9645 15.276 25.9645 15.276L25.7021 16.7149C25.7021 16.7149 26.4087 17.0804 27.3469 17.0804C28.7375 17.0804 29.8317 16.2707 29.8317 14.8204C29.8317 13.0924 27.8075 12.9829 27.8075 12.2203C27.8075 11.9494 28.0854 11.6525 28.6621 11.6525C29.3128 11.6525 29.8436 11.9671 29.8436 11.9671L30.1005 10.5774C30.1005 10.5774 29.5229 10.2856 28.7083 10.2856ZM17.0718 10.3905L17.041 10.6003C17.041 10.6003 17.5761 10.715 18.058 10.9437C18.6786 11.2059 18.7228 11.3586 18.8273 11.8328L19.9661 16.9723H21.4926L23.8444 10.3905H22.3214L20.8102 14.8655L20.1935 11.0723C20.137 10.6382 19.8505 10.3905 19.4999 10.3905H17.0718ZM24.4569 10.3905L23.2621 16.9723H24.7144L25.905 10.3905H24.4569ZM32.5573 10.3905C32.207 10.3905 32.0215 10.61 31.8853 10.9936L29.7575 16.9723H31.2806L31.5752 15.9758H33.4308L33.61 16.9723H34.9539L33.7815 10.3905H32.5573ZM32.7553 12.1687L33.2068 14.6385H31.9973L32.7553 12.1687Z" fill="#00259F"/>
</g>
<path fill-rule="evenodd" clip-rule="evenodd" d="M18.7079 35.001C18.8729 34.9999 19.3632 34.9501 19.5709 35.7407C19.7108 36.2733 19.9337 37.1456 20.2395 38.3578H20.3641C20.6921 37.0798 20.9174 36.2075 21.04 35.7407C21.2499 34.9418 21.7746 35.001 21.9844 35.001H23.6037V40.6817H21.9533V37.334H21.8426L20.9227 40.6817H19.681L18.761 37.3315H18.6503V40.6817H17V35.001H18.7079ZM25.9735 35.001V38.3512H26.1052L27.2242 35.5964C27.4415 35.0481 27.9045 35.001 27.9045 35.001H29.5015V40.6817H27.8167V37.3315H27.685L26.5879 40.0864C26.3707 40.6321 25.8857 40.6817 25.8857 40.6817H24.2887V35.001H25.9735ZM35.3249 37.7005C35.0899 38.4516 34.3519 38.9895 33.5348 38.9895H31.7679V40.6817H30.1658V37.7005H35.3249Z" fill="#28A43F"/>
<path fill-rule="evenodd" clip-rule="evenodd" d="M33.6104 35.001H30.0801C30.1641 36.2657 31.1298 37.3484 32.1295 37.3484H35.4346C35.6253 36.2973 34.9687 35.001 33.6104 35.001Z" fill="url(#paint0_linear_6_391)"/>
<defs>
<linearGradient id="paint0_linear_6_391" x1="35.467" y1="36.4776" x2="30.0801" y2="36.4776" gradientUnits="userSpaceOnUse">
<stop stop-color="#1F5CD7"/>
<stop offset="1" stop-color="#02AEFF"/>
</linearGradient>
</defs>
</svg>
