<svg width="60" height="60" viewBox="0 0 60 60" fill="none" xmlns="http://www.w3.org/2000/svg">
<rect width="60" height="60" rx="30" fill="#21242B"/>
<path fill-rule="evenodd" clip-rule="evenodd" d="M18.0541 17.0565C17.5331 16.8733 16.9622 17.1472 16.779 17.6682C16.5959 18.1893 16.8697 18.7601 17.3908 18.9433L17.739 19.0657C18.6292 19.3787 19.2142 19.5861 19.6446 19.7973C20.049 19.9957 20.2272 20.1563 20.3446 20.3281C20.4649 20.5042 20.5579 20.7461 20.6103 21.2306C20.6652 21.7375 20.6665 22.3978 20.6665 23.3844L20.6665 26.8533C20.6665 30.7754 20.7509 32.0698 21.9061 33.2882C23.0613 34.5066 24.9205 34.5066 28.6391 34.5066H35.7096C37.791 34.5066 38.8316 34.5066 39.5673 33.9072C40.3029 33.3077 40.513 32.2884 40.9331 30.2499L41.5995 27.017C42.0623 24.6982 42.2937 23.5388 41.7018 22.7694C41.1099 22 39.0875 22 36.8409 22H22.6566C22.6477 21.6395 22.6308 21.3116 22.5987 21.0153C22.5271 20.3535 22.3718 19.7499 21.9959 19.1997C21.617 18.6452 21.1132 18.2901 20.5256 18.0018C19.9762 17.7322 19.278 17.4868 18.456 17.1978L18.0541 17.0565ZM34.6898 25.2758C35.0897 25.6567 35.1052 26.2897 34.7243 26.6896L30.9148 30.6896C30.726 30.8878 30.4643 31 30.1906 31C29.917 31 29.6552 30.8878 29.4665 30.6896L27.9427 29.0896C27.5618 28.6897 27.5772 28.0567 27.9772 27.6758C28.3771 27.2949 29.0101 27.3104 29.391 27.7103L30.1906 28.55L33.276 25.3103C33.6569 24.9104 34.2899 24.8949 34.6898 25.2758Z" fill="#7B58E8"/>
<path d="M24.0002 38C25.1047 38 26.0002 38.8954 26.0002 40C26.0002 41.1045 25.1047 42 24.0002 42C22.8956 42 22.0002 41.1045 22.0002 40C22.0002 38.8954 22.8956 38 24.0002 38Z" fill="#7B58E8"/>
<path d="M36.0002 38.0001C37.1047 38.0001 38.0002 38.8955 38.0002 40.0001C38.0002 41.1046 37.1047 42.0001 36.0002 42.0001C34.8956 42.0001 34.0002 41.1046 34.0002 40.0001C34.0002 38.8955 34.8956 38.0001 36.0002 38.0001Z" fill="#7B58E8"/>
</svg>
