<svg width="60" height="60" viewBox="0 0 60 60" fill="none" xmlns="http://www.w3.org/2000/svg">
<rect width="60" height="60" rx="30" fill="#21242B"/>
<path d="M32.0003 29H28.3337V24.9333C28.3337 24.804 28.3337 24.7271 28.3353 24.6691C28.3363 24.6322 28.3377 24.6162 28.3381 24.6124C28.3614 24.4715 28.4718 24.361 28.6127 24.3378C28.6166 24.3374 28.6326 24.336 28.6694 24.335C28.7274 24.3334 28.8044 24.3333 28.9337 24.3333H32.0003C33.289 24.3333 34.3337 25.378 34.3337 26.6667C34.3337 27.9553 33.289 29 32.0003 29Z" fill="#7B58E8"/>
<path fill-rule="evenodd" clip-rule="evenodd" d="M43.3337 30C43.3337 37.3638 37.3641 43.3333 30.0003 43.3333C22.6365 43.3333 16.667 37.3638 16.667 30C16.667 22.6362 22.6365 16.6667 30.0003 16.6667C37.3641 16.6667 43.3337 22.6362 43.3337 30ZM25.0003 32.6667C25.0003 32.1144 25.448 31.6667 26.0003 31.6667H26.3337V31H26.0003C25.448 31 25.0003 30.5523 25.0003 30C25.0003 29.4477 25.448 29 26.0003 29H26.3337L26.3336 24.882C26.3334 24.688 26.3331 24.4863 26.3624 24.3016C26.5205 23.3032 27.3036 22.5202 28.302 22.3621C28.4866 22.3328 28.6883 22.333 28.8823 22.3333L32.0003 22.3333C34.3936 22.3333 36.3337 24.2734 36.3337 26.6667C36.3337 29.0599 34.3936 31 32.0003 31H28.3337V31.6667H30.0003C30.5526 31.6667 31.0003 32.1144 31.0003 32.6667C31.0003 33.2189 30.5526 33.6667 30.0003 33.6667H28.3337V36.6667C28.3337 37.2189 27.8859 37.6667 27.3337 37.6667C26.7814 37.6667 26.3337 37.2189 26.3337 36.6667V33.6667H26.0003C25.448 33.6667 25.0003 33.2189 25.0003 32.6667Z" fill="#7B58E8"/>
</svg>
