<svg width="60" height="60" viewBox="0 0 60 60" fill="none" xmlns="http://www.w3.org/2000/svg">
<rect width="60" height="60" rx="30" fill="#21242B"/>
<g clip-path="url(#clip0_48_1434)">
<path d="M29.9381 46C38.8088 46 46 38.8366 46 30C46 21.1634 38.8088 14 29.9381 14C21.9335 14 15.2965 19.8328 14.0767 27.4645L25.7685 32.515C25.9558 32.3866 26.1555 32.2749 26.3687 32.1843C26.8522 31.9763 27.3621 31.8839 27.8702 31.907L31.0069 27.1538C31.0057 27.1326 31.0057 27.1102 31.0057 27.0878C31.0057 24.2823 33.1897 22 35.8749 22C38.5602 22 40.7435 24.2822 40.7435 27.0877C40.7435 29.8931 38.5602 32.1766 35.8749 32.1766C35.8381 32.1766 35.8012 32.176 35.7643 32.1747L31.276 35.5207C31.2895 36.0375 31.198 36.5556 31.0026 37.0486C30.2494 38.9373 28.1638 39.8361 26.3546 39.047C25.2487 38.5662 24.4993 37.566 24.2548 36.4272L14 31.997C14.9867 39.8911 21.7462 46 29.9381 46Z" fill="#7B58E8"/>
<path d="M26.6666 38.2645C28.0636 38.8718 29.6707 38.1791 30.2538 36.7206C30.5351 36.0157 30.5363 35.2357 30.2574 34.5282C29.9791 33.8207 29.4538 33.268 28.7769 32.974C28.1054 32.6825 27.3866 32.6915 26.7545 32.9418L28.3929 33.65C29.4226 34.0981 29.9097 35.3332 29.4803 36.4086C29.0521 37.4832 27.8702 37.993 26.8399 37.5449L25.2549 36.8592C25.5357 37.471 26.0222 37.9839 26.6666 38.2645Z" fill="#7B58E8"/>
<path fill-rule="evenodd" clip-rule="evenodd" d="M32.6309 27.0877C32.6309 28.9571 34.0862 30.4786 35.8745 30.4786C37.6629 30.4786 39.1189 28.9571 39.1189 27.0877C39.1189 25.2195 37.6629 23.698 35.8745 23.698C34.0862 23.698 32.6309 25.2195 32.6309 27.0877ZM33.4437 27.0826C33.4437 28.4891 34.5347 29.6286 35.8795 29.6286C37.2255 29.6286 38.3172 28.4891 38.3172 27.0826C38.3172 25.676 37.2255 24.5352 35.8795 24.5352C34.5347 24.5352 33.4437 25.676 33.4437 27.0826Z" fill="#7B58E8"/>
</g>
<defs>
<clipPath id="clip0_48_1434">
<rect width="32" height="32" fill="white" transform="translate(14 14)"/>
</clipPath>
</defs>
</svg>
