<svg width="60" height="60" viewBox="0 0 60 60" fill="none" xmlns="http://www.w3.org/2000/svg">
<rect width="60" height="60" rx="30" fill="#21242B"/>
<path fill-rule="evenodd" clip-rule="evenodd" d="M41.2143 27.1475C41.1415 27.1428 41.0622 27.1429 40.98 27.1429L40.9595 27.1429H37.7357C35.0785 27.1429 32.8048 29.251 32.8048 32C32.8048 34.7491 35.0785 36.8572 37.7357 36.8572H40.9595L40.98 36.8572C41.0622 36.8572 41.1415 36.8572 41.2143 36.8526C42.2937 36.7839 43.2482 35.9326 43.3285 34.7436C43.3337 34.6657 43.3337 34.5816 43.3336 34.5037L43.3336 34.4826V29.5175L43.3336 29.4963C43.3337 29.4185 43.3337 29.3344 43.3285 29.2564C43.2482 28.0674 42.2937 27.2161 41.2143 27.1475ZM37.4499 33.2953C38.134 33.2953 38.6886 32.7154 38.6886 32C38.6886 31.2847 38.134 30.7048 37.4499 30.7048C36.7658 30.7048 36.2112 31.2847 36.2112 32C36.2112 32.7154 36.7658 33.2953 37.4499 33.2953Z" fill="#7B58E8"/>
<path fill-rule="evenodd" clip-rule="evenodd" d="M40.9792 38.8C41.1708 38.795 41.3158 38.9739 41.2638 39.1598C41.0058 40.0826 40.5964 40.8691 39.9393 41.5314C38.9775 42.5007 37.758 42.9308 36.2513 43.135C34.7872 43.3334 32.9165 43.3334 30.5548 43.3334H27.8395C25.4777 43.3334 23.607 43.3334 22.1429 43.135C20.6362 42.9308 19.4167 42.5007 18.4549 41.5314C17.4932 40.5621 17.0664 39.3329 16.8638 37.8144C16.667 36.3388 16.667 34.4534 16.667 32.0731V31.9269C16.667 29.5466 16.667 27.6612 16.8638 26.1857C17.0664 24.6671 17.4932 23.438 18.4549 22.4687C19.4167 21.4994 20.6362 21.0692 22.1429 20.865C23.607 20.6667 25.4777 20.6667 27.8395 20.6667L30.5548 20.6667C32.9165 20.6667 34.7872 20.6667 36.2513 20.865C37.758 21.0692 38.9775 21.4994 39.9393 22.4687C40.5964 23.1309 41.0058 23.9174 41.2638 24.8402C41.3158 25.0261 41.1708 25.205 40.9791 25.2L37.7356 25.2C34.0901 25.2 30.877 28.1025 30.877 32C30.877 35.8975 34.0901 38.8 37.7356 38.8L40.9792 38.8ZM21.4863 25.8476C20.9539 25.8476 20.5224 26.2826 20.5224 26.8191C20.5224 27.3556 20.9539 27.7905 21.4863 27.7905H26.6268C27.1592 27.7905 27.5907 27.3556 27.5907 26.8191C27.5907 26.2826 27.1592 25.8476 26.6268 25.8476H21.4863Z" fill="#7B58E8"/>
<path d="M24.3692 19.3659L26.981 17.4417C28.3836 16.4083 30.2837 16.4083 31.6863 17.4417L34.3118 19.376C33.2141 19.3333 31.9882 19.3333 30.6441 19.3334H27.7501C26.522 19.3333 25.3925 19.3333 24.3692 19.3659Z" fill="#7B58E8"/>
</svg>
