<svg width="20" height="20" viewBox="0 0 20 20" fill="none" xmlns="http://www.w3.org/2000/svg">
<path d="M9.99996 18.3334C6.07159 18.3334 4.1074 18.3334 2.88701 17.113C1.66663 15.8926 1.66663 13.9285 1.66663 10.0001C1.66663 6.07171 1.66663 4.10752 2.88701 2.88714C4.1074 1.66675 6.07159 1.66675 9.99996 1.66675C13.9283 1.66675 15.8925 1.66675 17.1129 2.88714C18.3333 4.10752 18.3333 6.07171 18.3333 10.0001C18.3333 13.9285 18.3333 15.8926 17.1129 17.113C15.8925 18.3334 13.9283 18.3334 9.99996 18.3334Z" fill="#7B58E8"/>
<path d="M13.3586 7.47481C13.6027 7.71888 13.6027 8.11461 13.3586 8.35869L9.19198 12.5254C8.94791 12.7694 8.55218 12.7694 8.3081 12.5254L6.64143 10.8587C6.39735 10.6146 6.39735 10.2189 6.64143 9.97481C6.88551 9.73073 7.28124 9.73073 7.52532 9.97481L8.75004 11.1995L12.4748 7.47481C12.7188 7.23073 13.1146 7.23073 13.3586 7.47481Z" fill="white"/>
</svg>
